<svg width="20" height="21" viewBox="0 0 20 21" fill="none" xmlns="http://www.w3.org/2000/svg">
<path d="M5.85872 20.6154C5.35419 20.6154 4.9282 20.4414 4.58076 20.0933C4.23331 19.7453 4.05959 19.319 4.05959 18.8145C4.05959 18.31 4.2336 17.884 4.58164 17.5365C4.92968 17.1891 5.35596 17.0154 5.8605 17.0154C6.36504 17.0154 6.79103 17.1894 7.13848 17.5374C7.48592 17.8854 7.65964 18.3117 7.65964 18.8163C7.65964 19.3208 7.48562 19.7468 7.13758 20.0942C6.78956 20.4417 6.36328 20.6154 5.85872 20.6154ZM15.8434 20.6154C15.3389 20.6154 14.9129 20.4414 14.5654 20.0933C14.218 19.7453 14.0443 19.319 14.0443 18.8145C14.0443 18.31 14.2183 17.884 14.5663 17.5365C14.9144 17.1891 15.3406 17.0154 15.8452 17.0154C16.3497 17.0154 16.7757 17.1894 17.1232 17.5374C17.4706 17.8854 17.6443 18.3117 17.6443 18.8163C17.6443 19.3208 17.4703 19.7468 17.1223 20.0942C16.7742 20.4417 16.348 20.6154 15.8434 20.6154ZM4.78269 4.44999L7.35194 9.81536H14.1366C14.252 9.81536 14.3546 9.78652 14.4443 9.72884C14.534 9.67114 14.611 9.59101 14.6751 9.48846L17.1405 4.98844C17.2174 4.84742 17.2238 4.72243 17.1597 4.61346C17.0956 4.50448 16.9866 4.44999 16.8328 4.44999H4.78269ZM3.99421 2.79999H18.3636C18.79 2.79999 19.1107 2.97723 19.3257 3.33171C19.5407 3.6862 19.5418 4.05126 19.329 4.42691L15.9712 10.4846C15.8097 10.7782 15.5845 11.0151 15.2956 11.1952C15.0067 11.3753 14.6896 11.4654 14.3443 11.4654H6.90193L5.98655 13.0961C5.88398 13.25 5.88077 13.4167 5.97693 13.5961C6.07308 13.7756 6.21731 13.8654 6.40963 13.8654H17.6943V15.5154H5.85962C5.14295 15.5154 4.62019 15.2112 4.29134 14.6029C3.96248 13.9945 3.9596 13.3923 4.28269 12.7961L5.68652 10.2154L2.00957 2.44999H0.0518799V0.799988H3.0442L3.99421 2.79999Z"/>
</svg>
