<svg width="20" height="21" viewBox="0 0 20 21" fill="none" xmlns="http://www.w3.org/2000/svg">
<path d="M0.201416 20.127V3.1654C0.201416 2.5264 0.419226 1.98908 0.854846 1.55345C1.29048 1.11783 1.8278 0.900024 2.46681 0.900024H17.5362C18.1752 0.900024 18.7125 1.11783 19.1481 1.55345C19.5838 1.98908 19.8016 2.5264 19.8016 3.1654V14.1347C19.8016 14.7737 19.5838 15.311 19.1481 15.7466C18.7125 16.1822 18.1752 16.4 17.5362 16.4H3.92837L0.201416 20.127ZM3.25144 14.75H17.5362C17.69 14.75 17.831 14.6859 17.9593 14.5577C18.0875 14.4295 18.1516 14.2885 18.1516 14.1347V3.1654C18.1516 3.01157 18.0875 2.87054 17.9593 2.74232C17.831 2.61412 17.69 2.55002 17.5362 2.55002H2.46681C2.31297 2.55002 2.17195 2.61412 2.04373 2.74232C1.91553 2.87054 1.85143 3.01157 1.85143 3.1654V16.1693L3.25144 14.75Z" />
</svg>
