<svg width="22" height="18" viewBox="0 0 22 18" fill="none" xmlns="http://www.w3.org/2000/svg">
<path d="M0.121216 17.1404V14.7192C0.121216 14.1385 0.259632 13.6448 0.536466 13.2383C0.813316 12.8317 1.1848 12.5094 1.65092 12.2714C2.58497 11.8084 3.53178 11.4417 4.49137 11.1712C5.45097 10.9006 6.58592 10.7654 7.89622 10.7654C9.20085 10.7654 10.3302 10.9006 11.2843 11.1712C12.2384 11.4417 13.1825 11.8084 14.1165 12.2714C14.5826 12.5094 14.9541 12.8317 15.231 13.2383C15.5078 13.6448 15.6462 14.1385 15.6462 14.7192V17.1404H0.121216ZM17.7712 17.1404V14.5731C17.7712 14.0269 17.6664 13.4174 17.4569 12.7446C17.2473 12.0717 16.8937 11.5011 16.3962 11.0327C17.0872 11.1327 17.7478 11.2881 18.3779 11.499C19.0081 11.7099 19.6122 11.9679 20.1905 12.2731C20.7211 12.5538 21.1352 12.9026 21.4327 13.3194C21.7302 13.7362 21.8789 14.1541 21.8789 14.5731V17.1404H17.7712ZM7.87122 8.20963C6.85372 8.20963 5.98267 7.84733 5.25809 7.12275C4.53351 6.39817 4.17122 5.52713 4.17122 4.50963C4.17122 3.49211 4.53351 2.62106 5.25809 1.89648C5.98267 1.17189 6.85372 0.809601 7.87122 0.809601C8.88872 0.809601 9.75976 1.17189 10.4843 1.89648C11.2089 2.62106 11.5712 3.49211 11.5712 4.50963C11.5712 5.52713 11.2089 6.39817 10.4843 7.12275C9.75976 7.84733 8.88872 8.20963 7.87122 8.20963ZM17.2655 4.50963C17.2655 5.52713 16.9032 6.39817 16.1786 7.12275C15.454 7.84733 14.583 8.20963 13.5655 8.20963C13.4565 8.20963 13.2943 8.19648 13.0789 8.1702C12.8635 8.14392 12.7013 8.10834 12.5924 8.06348C12.9644 7.54856 13.2414 6.98952 13.4233 6.38635C13.6053 5.78317 13.6962 5.15679 13.6962 4.50723C13.6962 3.85766 13.601 3.23605 13.4106 2.6424C13.2203 2.04875 12.9475 1.48653 12.5924 0.955751C12.7462 0.903201 12.9084 0.865701 13.0789 0.843251C13.2494 0.820818 13.4116 0.809601 13.5655 0.809601C14.583 0.809601 15.454 1.17189 16.1786 1.89648C16.9032 2.62106 17.2655 3.49211 17.2655 4.50963ZM1.77122 15.4904H13.9962V14.7192C13.9962 14.4846 13.9542 14.2962 13.8703 14.1539C13.7863 14.0115 13.6174 13.8769 13.3635 13.75C12.6007 13.3513 11.7642 13.0292 10.8539 12.7837C9.94365 12.5381 8.95358 12.4154 7.88372 12.4154C6.81385 12.4154 5.82378 12.5381 4.91352 12.7837C4.00327 13.0292 3.16673 13.3513 2.40392 13.75C2.15007 13.8769 1.98115 14.0115 1.89717 14.1539C1.8132 14.2962 1.77122 14.4846 1.77122 14.7192V15.4904ZM7.87432 6.55963C8.43892 6.55963 8.92122 6.35859 9.32122 5.95653C9.72122 5.55446 9.92122 5.07113 9.92122 4.50653C9.92122 3.94193 9.72018 3.45963 9.31812 3.05963C8.91605 2.65963 8.43272 2.45963 7.86812 2.45963C7.30352 2.45963 6.82122 2.66065 6.42122 3.0627C6.02122 3.46477 5.82122 3.9481 5.82122 4.5127C5.82122 5.07732 6.02225 5.55963 6.42432 5.95963C6.82638 6.35963 7.30972 6.55963 7.87432 6.55963Z"/>
</svg>
