<svg width="30" height="30" viewBox="0 0 30 30" fill="none" xmlns="http://www.w3.org/2000/svg">
<circle cx="15" cy="15" r="15"/>
<circle cx="15" cy="15" r="14" fill="white"/>
<mask id="mask0_964_1411" style="mask-type:alpha" maskUnits="userSpaceOnUse" x="3" y="3" width="24" height="24">
<rect x="3" y="3" width="24" height="24" fill="#D9D9D9"/>
</mask>
<g mask="url(#mask0_964_1411)">
<path d="M15 15C15.55 15 16.0208 14.8042 16.4125 14.4125C16.8042 14.0208 17 13.55 17 13C17 12.45 16.8042 11.9792 16.4125 11.5875C16.0208 11.1958 15.55 11 15 11C14.45 11 13.9792 11.1958 13.5875 11.5875C13.1958 11.9792 13 12.45 13 13C13 13.55 13.1958 14.0208 13.5875 14.4125C13.9792 14.8042 14.45 15 15 15ZM15 22.35C17.0333 20.4833 18.5417 18.7875 19.525 17.2625C20.5083 15.7375 21 14.3833 21 13.2C21 11.3833 20.4208 9.89583 19.2625 8.7375C18.1042 7.57917 16.6833 7 15 7C13.3167 7 11.8958 7.57917 10.7375 8.7375C9.57917 9.89583 9 11.3833 9 13.2C9 14.3833 9.49167 15.7375 10.475 17.2625C11.4583 18.7875 12.9667 20.4833 15 22.35ZM15 25C12.3167 22.7167 10.3125 20.5958 8.9875 18.6375C7.6625 16.6792 7 14.8667 7 13.2C7 10.7 7.80417 8.70833 9.4125 7.225C11.0208 5.74167 12.8833 5 15 5C17.1167 5 18.9792 5.74167 20.5875 7.225C22.1958 8.70833 23 10.7 23 13.2C23 14.8667 22.3375 16.6792 21.0125 18.6375C19.6875 20.5958 17.6833 22.7167 15 25Z"/>
</g>
</svg>
