<svg width="20" height="18" viewBox="0 0 20 18" fill="none" xmlns="http://www.w3.org/2000/svg">
<path d="M16.4318 9.825H6.03377V8.175H16.4318L14.6374 6.38655L15.7989 5.1673L19.6193 8.975L15.7989 12.7827L14.6374 11.6134L16.4318 9.825ZM11.4769 5.40577V2.46537C11.4769 2.28589 11.419 2.13845 11.3032 2.02307C11.1874 1.90769 11.0395 1.85 10.8594 1.85H2.4835C2.30342 1.85 2.15549 1.90769 2.03972 2.02307C1.92396 2.13845 1.86607 2.28589 1.86607 2.46537V15.5346C1.86607 15.7141 1.92396 15.8615 2.03972 15.9769C2.15549 16.0923 2.30342 16.15 2.4835 16.15H10.8594C11.0395 16.15 11.1874 16.0923 11.3032 15.9769C11.419 15.8615 11.4769 15.7141 11.4769 15.5346V12.5942H13.1324V15.5346C13.1324 16.1821 12.9159 16.7215 12.4831 17.1529C12.0502 17.5843 11.509 17.8 10.8594 17.8H2.4835C1.83391 17.8 1.29268 17.5843 0.859828 17.1529C0.42699 16.7215 0.210571 16.1821 0.210571 15.5346V2.46537C0.210571 1.81794 0.42699 1.27851 0.859828 0.847096C1.29268 0.415696 1.83391 0.199997 2.4835 0.199997H10.8594C11.509 0.199997 12.0502 0.415696 12.4831 0.847096C12.9159 1.27851 13.1324 1.81794 13.1324 2.46537V5.40577H11.4769Z" />
</svg>
