<svg width="21" height="22" viewBox="0 0 21 22" fill="none" xmlns="http://www.w3.org/2000/svg">
<path d="M10 8.04828V5.04828H7V3.04828H10V0.0482788H12V3.04828H15V5.04828H12V8.04828H10ZM6 21.0483C5.45 21.0483 4.97917 20.8524 4.5875 20.4608C4.19583 20.0691 4 19.5983 4 19.0483C4 18.4983 4.19583 18.0274 4.5875 17.6358C4.97917 17.2441 5.45 17.0483 6 17.0483C6.55 17.0483 7.02083 17.2441 7.4125 17.6358C7.80417 18.0274 8 18.4983 8 19.0483C8 19.5983 7.80417 20.0691 7.4125 20.4608C7.02083 20.8524 6.55 21.0483 6 21.0483ZM16 21.0483C15.45 21.0483 14.9792 20.8524 14.5875 20.4608C14.1958 20.0691 14 19.5983 14 19.0483C14 18.4983 14.1958 18.0274 14.5875 17.6358C14.9792 17.2441 15.45 17.0483 16 17.0483C16.55 17.0483 17.0208 17.2441 17.4125 17.6358C17.8042 18.0274 18 18.4983 18 19.0483C18 19.5983 17.8042 20.0691 17.4125 20.4608C17.0208 20.8524 16.55 21.0483 16 21.0483ZM0 3.04828V1.04828H3.275L7.525 10.0483H14.525L18.425 3.04828H20.7L16.3 10.9983C16.1167 11.3316 15.8708 11.5899 15.5625 11.7733C15.2542 11.9566 14.9167 12.0483 14.55 12.0483H7.1L6 14.0483H18V16.0483H6C5.25 16.0483 4.67917 15.7233 4.2875 15.0733C3.89583 14.4233 3.88333 13.7649 4.25 13.0983L5.6 10.6483L2 3.04828H0Z" />
</svg>
